<svg width="3364" height="416" viewBox="0 0 3364 416" fill="none" xmlns="http://www.w3.org/2000/svg">
<path d="M0 64.0488C3.02734e-08 64.3951 5.04559e-08 64.626 8.07293e-08 64.9723C0.231145 133.191 0.462299 201.41 0.693444 269.628C0.693446 285.788 12.3661 298.832 26.697 298.832L27.3904 298.832C41.8368 298.832 53.394 285.673 53.394 269.513L53.3939 64.8568C53.3939 64.626 53.3939 64.3951 53.3939 64.0488L0 64.0488Z" fill="white"/>
<path d="M510.594 64.5103C528.276 64.5103 545.959 64.6257 563.641 64.6257C563.757 143.579 563.872 222.417 563.988 301.371C546.19 301.371 528.392 301.371 510.594 301.371C510.594 222.417 510.594 143.464 510.594 64.5103Z" fill="white"/>
<path d="M605.478 64.626C605.478 135.73 605.478 206.95 605.478 278.055C607.674 291.444 619.462 301.256 632.868 300.91C646.044 300.563 657.37 290.521 659.103 277.362C659.45 222.071 659.796 166.665 660.259 111.375L719.431 111.375C722.205 111.49 733.531 112.183 743.123 121.186C753.294 130.767 754.449 142.772 754.565 145.426C754.796 149.582 756.299 160.086 750.404 170.475C740.812 187.327 720.703 189.405 718.507 189.636C714.577 190.213 710.532 190.906 706.603 191.483C704.985 192.06 700.709 193.676 697.935 198.062C692.734 206.027 697.126 215.146 697.357 215.607C716.427 243.31 735.496 271.013 754.565 298.716L813.738 298.716L761.268 225.188C767.509 222.533 777.795 217.223 787.503 207.066C797.673 196.446 802.643 185.25 804.839 178.901C807.035 172.091 809.577 161.471 809.23 148.312C808.768 131.69 803.798 119.57 802.412 116.454C799.06 109.066 791.548 95.2147 776.639 83.3255C758.61 69.0123 739.888 65.6648 731.682 64.626C689.614 64.626 647.546 64.626 605.478 64.626Z" fill="white"/>
<path d="M945.027 62.3174C934.972 64.2797 901.918 72.2443 875.684 102.948C850.374 132.614 847.138 165.049 846.56 175.438C845.52 185.48 843.786 213.876 860.544 243.541C879.035 276.323 908.044 289.367 916.943 292.945C923.299 295.715 930.811 298.601 939.479 300.91C947.338 302.987 954.619 304.257 960.975 305.065C966.638 305.873 973.341 306.335 980.738 306.219C988.944 306.104 996.109 305.18 1002.23 304.026C1011.36 302.526 1022.46 299.871 1034.71 295.254C1048.69 289.828 1059.9 283.364 1068.23 277.708C1067.99 249.89 1067.88 222.071 1067.65 194.138C1066.95 191.944 1064.76 186.057 1058.52 181.556C1052.97 177.516 1047.31 176.823 1045 176.592C1043.49 176.477 1035.06 175.9 1027.89 182.133C1021.65 187.558 1020.38 194.599 1020.15 196.446C1019.8 214.222 1019.45 231.998 1018.99 249.774C1012.17 253.468 996.918 260.509 976.577 259.932C960.397 259.471 948.031 254.276 941.328 250.813C935.549 248.274 926.073 243.426 917.174 234.076C906.541 222.879 902.034 210.99 900.069 204.642C898.913 199.332 897.989 192.868 897.873 185.365C897.758 174.053 899.722 164.703 901.687 157.893C903.652 151.89 908.275 140.232 919.023 129.266C929.771 118.416 941.328 113.683 947.338 111.721C953.81 109.297 965.598 105.719 980.391 106.758C998.651 108.027 1011.71 115.415 1017.84 119.339C1029.97 108.374 1041.99 97.4078 1054.13 86.3266C1048.92 81.594 1041.07 75.7071 1030.43 70.9745C1022.57 67.3962 1015.29 65.4339 1009.52 64.3951C1000.04 62.2019 988.019 60.2396 974.035 60.0087C963.287 59.8933 953.348 60.9322 945.027 62.3174Z" fill="white"/>
<path d="M373.873 64.626L319.786 64.626C290.084 133.191 260.498 201.64 230.796 270.205C227.675 279.324 230.102 289.367 236.921 295.6C245.011 302.987 256.568 302.41 263.734 298.832C268.01 296.639 270.668 293.522 279.105 276.785C284.19 266.743 288.35 257.97 291.355 251.39C327.876 251.39 364.281 251.39 400.801 251.39L421.488 301.602L480.661 301.602L373.873 64.626ZM309.5 209.259L346.598 119.801L384.852 208.682L309.5 209.259Z" fill="white"/>
<path d="M1113.99 64.626L1294.86 64.626C1306.3 67.6271 1314.39 77.9003 1314.62 89.5587C1314.85 101.563 1306.65 112.298 1294.86 115.415C1251.75 115.415 1208.53 115.415 1165.42 115.415L1165.42 156.161L1250.83 156.161L1250.83 208.566L1164.84 208.566L1164.84 246.427C1171.08 246.427 1181.02 246.427 1193.39 246.427C1195.01 246.427 1217.89 246.427 1230.37 246.427C1249.56 246.427 1252.68 246.542 1256.03 246.427C1257.07 246.427 1257.65 246.427 1258.34 246.427C1265.39 246.312 1270.13 246.427 1281.22 246.427C1286.31 246.427 1286.08 246.427 1286.31 246.427C1296.83 247.12 1314.62 256.238 1315.43 272.86C1316.13 285.211 1307 297.562 1293.24 301.487C1280.88 301.487 1268.51 301.487 1256.14 301.487C1233.61 301.487 1210.96 301.487 1188.42 301.487C1178.94 301.487 1169.47 301.487 1159.99 301.487C1154.9 301.487 1149.82 301.602 1144.73 301.487C1143.92 301.487 1141.61 301.487 1138.49 301.487C1135.72 301.487 1135.83 301.602 1134.91 301.602C1131.44 301.371 1128.78 300.332 1127.51 299.755C1124.97 298.716 1123.01 297.331 1121.5 296.062C1120.69 295.254 1119.77 294.099 1118.85 292.83C1118.04 291.791 1117.46 290.752 1117 289.713C1117 289.713 1115.15 286.019 1114.69 281.517C1113.99 275.631 1113.76 186.519 1113.99 64.626Z" fill="white"/>
<path d="M1357.96 64.6256C1357.85 134.576 1357.85 204.641 1357.73 274.591C1357.62 289.251 1369.4 301.14 1383.39 301.371C1396.68 301.486 1408.35 291.098 1409.62 277.362C1409.74 237.423 1409.74 197.6 1409.85 157.662L1528.2 298.716L1572.81 298.716C1572.81 229.112 1572.81 159.393 1572.81 89.7892C1571.89 75.7068 1560.21 64.6256 1546.23 64.5102C1532.36 64.3948 1520.46 75.1297 1519.3 88.9812C1519.3 128.804 1519.3 168.512 1519.3 208.335L1404.31 64.5102L1357.96 64.5102L1357.96 64.6256Z" fill="white"/>
<path d="M184.452 116.453L111.295 116.453C96.9642 116.453 85.2914 104.795 85.2914 90.4818C85.2914 76.1686 96.9642 64.5103 111.295 64.5103L184.452 64.5102C198.782 64.5102 210.455 76.1686 210.455 90.4818C210.34 104.91 198.782 116.453 184.452 116.453Z" fill="#38B36D"/>
<path d="M184.452 213.53L111.295 213.53C96.9642 213.53 85.2914 201.871 85.2914 187.558C85.2914 173.245 96.9642 161.586 111.295 161.586L184.452 161.586C198.782 161.586 210.455 173.245 210.455 187.558C210.34 201.871 198.782 213.53 184.452 213.53Z" fill="#38B36D"/>
<path d="M1798.32 78.7664V217.397C1798.32 239.242 1803.46 255.415 1813.75 265.918C1824.26 276.42 1838.54 281.671 1856.6 281.671C1874.67 281.671 1888.74 276.525 1898.82 266.233C1909.11 255.73 1914.26 239.452 1914.26 217.397V78.7664H1936.32V217.082C1936.32 245.018 1928.86 266.023 1913.95 280.096C1899.24 294.169 1880.02 301.205 1856.29 301.205C1832.55 301.205 1813.23 294.169 1798.32 280.096C1783.61 266.023 1776.26 245.018 1776.26 217.082V78.7664H1798.32ZM2044.74 301.521C2025 301.521 2008.82 297.005 1996.22 287.973C1983.83 278.731 1976.9 266.233 1975.43 250.479H1998.11C1999.16 260.141 2003.68 268.018 2011.66 274.11C2019.85 279.991 2030.77 282.931 2044.43 282.931C2056.4 282.931 2065.75 280.096 2072.47 274.425C2079.4 268.753 2082.86 261.717 2082.86 253.315C2082.86 247.434 2080.97 242.603 2077.19 238.822C2073.41 235.041 2068.58 232.1 2062.7 230C2057.03 227.689 2049.26 225.274 2039.39 222.753C2026.57 219.392 2016.18 216.032 2008.19 212.671C2000.21 209.31 1993.39 204.374 1987.71 197.863C1982.25 191.141 1979.52 182.214 1979.52 171.082C1979.52 162.68 1982.04 154.908 1987.08 147.767C1992.12 140.625 1999.27 134.954 2008.51 130.753C2017.75 126.552 2028.25 124.452 2040.02 124.452C2058.5 124.452 2073.41 129.178 2084.76 138.63C2096.1 147.872 2102.19 160.684 2103.03 177.068H2080.97C2080.34 166.986 2076.35 158.899 2069 152.808C2061.86 146.506 2051.99 143.356 2039.39 143.356C2028.25 143.356 2019.22 145.981 2012.29 151.232C2005.36 156.484 2001.89 162.995 2001.89 170.767C2001.89 177.488 2003.89 183.054 2007.88 187.465C2012.08 191.666 2017.23 195.027 2023.32 197.548C2029.41 199.858 2037.6 202.484 2047.89 205.424C2060.28 208.785 2070.16 212.041 2077.51 215.192C2084.86 218.342 2091.16 222.963 2096.41 229.055C2101.66 235.146 2104.39 243.233 2104.6 253.315C2104.6 262.557 2102.08 270.854 2097.04 278.205C2092 285.347 2084.97 291.018 2075.93 295.219C2066.9 299.42 2056.5 301.521 2044.74 301.521ZM2301.76 204.164C2301.76 211.726 2301.55 217.502 2301.13 221.493H2158.41C2159.04 234.516 2162.19 245.648 2167.86 254.89C2173.53 264.132 2180.99 271.169 2190.23 276C2199.47 280.621 2209.55 282.931 2220.48 282.931C2234.76 282.931 2246.73 279.466 2256.39 272.534C2266.27 265.603 2272.78 256.256 2275.93 244.493H2299.24C2295.04 261.297 2286.01 275.055 2272.15 285.767C2258.49 296.269 2241.27 301.521 2220.48 301.521C2204.3 301.521 2189.81 297.95 2177 290.808C2164.18 283.457 2154.1 273.164 2146.75 259.931C2139.61 246.488 2136.04 230.84 2136.04 212.986C2136.04 195.132 2139.61 179.484 2146.75 166.041C2153.89 152.598 2163.87 142.305 2176.68 135.164C2189.49 128.022 2204.09 124.452 2220.48 124.452C2236.86 124.452 2251.14 128.022 2263.33 135.164C2275.72 142.305 2285.17 151.968 2291.68 164.15C2298.4 176.123 2301.76 189.461 2301.76 204.164ZM2279.39 203.534C2279.6 190.721 2276.98 179.799 2271.52 170.767C2266.27 161.735 2259.02 154.908 2249.78 150.287C2240.54 145.666 2230.45 143.356 2219.53 143.356C2203.15 143.356 2189.18 148.607 2177.63 159.109C2166.07 169.611 2159.67 184.42 2158.41 203.534H2279.39ZM2364.17 157.534C2369 146.821 2376.35 138.525 2386.22 132.643C2396.31 126.762 2408.59 123.821 2423.09 123.821V146.821H2417.1C2401.14 146.821 2388.33 151.127 2378.66 159.739C2369 168.351 2364.17 182.739 2364.17 202.904V299H2342.12V126.972H2364.17V157.534ZM2607.95 78.7664C2632.31 78.7664 2653.21 83.1774 2670.64 91.9994C2688.08 100.821 2701.42 113.529 2710.66 130.123C2719.9 146.716 2724.52 166.461 2724.52 189.356C2724.52 212.041 2719.9 231.68 2710.66 248.274C2701.42 264.657 2688.08 277.26 2670.64 286.082C2653.21 294.694 2632.31 299 2607.95 299H2542.73V78.7664H2607.95ZM2607.95 280.726C2638.61 280.726 2661.93 272.744 2677.89 256.781C2694.06 240.607 2702.15 218.132 2702.15 189.356C2702.15 160.369 2694.06 137.789 2677.89 121.616C2661.93 105.232 2638.61 97.0405 2607.95 97.0405H2564.78V280.726H2607.95ZM2840.48 301.521C2824.31 301.521 2809.71 297.95 2796.69 290.808C2783.88 283.457 2773.69 273.164 2766.13 259.931C2758.78 246.488 2755.1 230.84 2755.1 212.986C2755.1 195.132 2758.88 179.589 2766.44 166.356C2774 152.913 2784.3 142.621 2797.32 135.479C2810.34 128.127 2824.94 124.452 2841.11 124.452C2857.29 124.452 2871.89 128.127 2884.91 135.479C2898.14 142.621 2908.43 152.913 2915.79 166.356C2923.35 179.589 2927.13 195.132 2927.13 212.986C2927.13 230.63 2923.35 246.173 2915.79 259.616C2908.22 273.059 2897.83 283.457 2884.59 290.808C2871.36 297.95 2856.66 301.521 2840.48 301.521ZM2840.48 282.301C2851.83 282.301 2862.33 279.781 2871.99 274.74C2881.65 269.488 2889.42 261.717 2895.31 251.425C2901.4 240.922 2904.44 228.109 2904.44 212.986C2904.44 197.863 2901.5 185.155 2895.62 174.863C2889.74 164.36 2881.97 156.589 2872.31 151.547C2862.64 146.296 2852.14 143.671 2840.8 143.671C2829.46 143.671 2818.95 146.296 2809.29 151.547C2799.63 156.589 2791.86 164.36 2785.98 174.863C2780.31 185.155 2777.47 197.863 2777.47 212.986C2777.47 228.109 2780.31 240.922 2785.98 251.425C2791.86 261.717 2799.52 269.488 2808.98 274.74C2818.64 279.781 2829.14 282.301 2840.48 282.301ZM2957.25 212.986C2957.25 195.132 2960.82 179.589 2967.96 166.356C2975.1 152.913 2984.98 142.621 2997.58 135.479C3010.18 128.127 3024.57 124.452 3040.74 124.452C3061.96 124.452 3079.39 129.703 3093.04 140.205C3106.91 150.707 3115.83 164.99 3119.82 183.054H3096.19C3093.25 170.662 3086.85 161 3076.98 154.068C3067.31 146.926 3055.24 143.356 3040.74 143.356C3029.19 143.356 3018.79 145.981 3009.55 151.232C3000.31 156.484 2992.96 164.36 2987.5 174.863C2982.24 185.155 2979.62 197.863 2979.62 212.986C2979.62 228.109 2982.24 240.922 2987.5 251.425C2992.96 261.927 3000.31 269.804 3009.55 275.055C3018.79 280.306 3029.19 282.931 3040.74 282.931C3055.24 282.931 3067.31 279.466 3076.98 272.534C3086.85 265.393 3093.25 255.52 3096.19 242.918H3119.82C3115.83 260.562 3106.91 274.74 3093.04 285.452C3079.18 296.164 3061.75 301.521 3040.74 301.521C3024.57 301.521 3010.18 297.95 2997.58 290.808C2984.98 283.457 2975.1 273.164 2967.96 259.931C2960.82 246.488 2957.25 230.84 2957.25 212.986ZM3219.79 301.521C3200.05 301.521 3183.87 297.005 3171.27 287.973C3158.88 278.731 3151.95 266.233 3150.48 250.479H3173.16C3174.21 260.141 3178.73 268.018 3186.71 274.11C3194.9 279.991 3205.82 282.931 3219.48 282.931C3231.45 282.931 3240.8 280.096 3247.52 274.425C3254.45 268.753 3257.91 261.717 3257.91 253.315C3257.91 247.434 3256.02 242.603 3252.24 238.822C3248.46 235.041 3243.63 232.1 3237.75 230C3232.08 227.689 3224.31 225.274 3214.43 222.753C3201.62 219.392 3191.22 216.032 3183.24 212.671C3175.26 209.31 3168.43 204.374 3162.76 197.863C3157.3 191.141 3154.57 182.214 3154.57 171.082C3154.57 162.68 3157.09 154.908 3162.13 147.767C3167.17 140.625 3174.32 134.954 3183.56 130.753C3192.8 126.552 3203.3 124.452 3215.06 124.452C3233.55 124.452 3248.46 129.178 3259.8 138.63C3271.15 147.872 3277.24 160.684 3278.08 177.068H3256.02C3255.39 166.986 3251.4 158.899 3244.05 152.808C3236.91 146.506 3227.04 143.356 3214.43 143.356C3203.3 143.356 3194.27 145.981 3187.34 151.232C3180.41 156.484 3176.94 162.995 3176.94 170.767C3176.94 177.488 3178.94 183.054 3182.93 187.465C3187.13 191.666 3192.27 195.027 3198.37 197.548C3204.46 199.858 3212.65 202.484 3222.94 205.424C3235.33 208.785 3245.21 212.041 3252.56 215.192C3259.91 218.342 3266.21 222.963 3271.46 229.055C3276.71 235.146 3279.44 243.233 3279.65 253.315C3279.65 262.557 3277.13 270.854 3272.09 278.205C3267.05 285.347 3260.01 291.018 3250.98 295.219C3241.95 299.42 3231.55 301.521 3219.79 301.521Z" fill="white"/>
</svg>
