<svg width="137" height="24" viewBox="0 0 137 24" fill="none" xmlns="http://www.w3.org/2000/svg">
    <path d="M1.65479 2.14282C1.65479 2.17181 1.65479 2.19114 1.65479 2.22013C1.67448 7.93148 1.69418 13.6428 1.71388 19.3542C1.71388 20.7071 2.70863 21.7991 3.92991 21.7991H3.989C5.22013 21.7991 6.20504 20.6974 6.20504 19.3445V2.21047C6.20504 2.19114 6.20504 2.17181 6.20504 2.14282H1.65479Z"
          fill="#F5F5F5"/>
    <path d="M45.168 2.1814C46.6749 2.1814 48.1818 2.19106 49.6887 2.19106C49.6985 8.80115 49.7084 15.4016 49.7182 22.0117C48.2015 22.0117 46.6847 22.0117 45.168 22.0117C45.168 15.4016 45.168 8.79148 45.168 2.1814Z"
          fill="#F5F5F5"/>
    <path d="M53.2539 2.19116C53.2539 8.1441 53.2539 14.1067 53.2539 20.0596C53.441 21.1807 54.4456 22.0021 55.5881 21.9731C56.7109 21.9441 57.6761 21.1033 57.8239 20.0017C57.8534 15.3727 57.8829 10.734 57.9223 6.10503H62.965C63.2014 6.11469 64.1666 6.17267 64.9841 6.92646C65.8508 7.72856 65.9493 8.7336 65.9592 8.95587C65.9789 9.30377 66.1069 10.1832 65.6046 11.0529C64.7871 12.4639 63.0734 12.6378 62.8863 12.6571C62.5514 12.7054 62.2067 12.7634 61.8718 12.8118C61.7339 12.8601 61.3695 12.9954 61.1331 13.3626C60.6899 14.0294 61.0642 14.7928 61.0839 14.8315C62.709 17.1508 64.3341 19.4702 65.9592 21.7895H71.0019L66.5304 15.6336C67.0622 15.4113 67.9388 14.9668 68.7661 14.1164C69.6328 13.2273 70.0564 12.2899 70.2435 11.7584C70.4306 11.1882 70.6473 10.2991 70.6177 9.19746C70.5784 7.80587 70.1548 6.79116 70.0367 6.53024C69.751 5.91175 69.1108 4.75209 67.8403 3.75671C66.3039 2.55839 64.7083 2.27814 64.009 2.19116C60.424 2.19116 56.839 2.19116 53.2539 2.19116Z"
          fill="#F5F5F5"/>
    <path d="M82.1905 1.99784C81.3336 2.16213 78.5168 2.82894 76.2811 5.39952C74.1241 7.88314 73.8484 10.5987 73.7991 11.4684C73.7105 12.3092 73.5628 14.6865 74.9909 17.1701C76.5667 19.9146 79.0388 21.0067 79.7972 21.3062C80.3389 21.5382 80.9791 21.7798 81.7177 21.9731C82.3875 22.147 83.008 22.2533 83.5497 22.321C84.0323 22.3886 84.6035 22.4273 85.2339 22.4176C85.9331 22.4079 86.5438 22.3306 87.0658 22.234C87.8438 22.1083 88.7893 21.8861 89.8333 21.4995C91.0251 21.0453 91.9804 20.5041 92.6896 20.0306C92.6699 17.7016 92.66 15.3726 92.6403 13.034C92.5812 12.8504 92.3941 12.3575 91.8622 11.9806C91.3895 11.6424 90.9069 11.5844 90.7099 11.5651C90.5819 11.5554 89.8629 11.5071 89.2523 12.0289C88.7204 12.4831 88.6121 13.0726 88.5924 13.2273C88.5628 14.7155 88.5333 16.2037 88.4939 17.692C87.9128 18.0012 86.6127 18.5907 84.8793 18.5424C83.5004 18.5037 82.4466 18.0689 81.8753 17.7789C81.3829 17.5663 80.5753 17.1604 79.8169 16.3777C78.9108 15.4403 78.5267 14.4449 78.3592 13.9134C78.2607 13.4689 78.1819 12.9277 78.1721 12.2995C78.1622 11.3525 78.3297 10.5697 78.4971 9.99953C78.6645 9.497 79.0585 8.52095 79.9745 7.60289C80.8904 6.69448 81.8753 6.29826 82.3875 6.13398C82.939 5.93104 83.9436 5.63146 85.2043 5.71843C86.7604 5.82473 87.8734 6.44322 88.3954 6.77179C89.4295 5.85373 90.4538 4.93566 91.488 4.00793C91.0448 3.61171 90.375 3.11885 89.4689 2.72263C88.7992 2.42305 88.1787 2.25877 87.6863 2.17179C86.8786 1.98818 85.8543 1.82389 84.6626 1.80457C83.7466 1.7949 82.8996 1.88188 82.1905 1.99784Z"
          fill="#F5F5F5"/>
    <path d="M33.5166 2.19116H28.9072C26.376 7.9315 23.8547 13.6622 21.3235 19.4025C21.0575 20.166 21.2644 21.0067 21.8455 21.5286C22.5349 22.147 23.5198 22.0987 24.1304 21.7991C24.4949 21.6155 24.7214 21.3546 25.4404 19.9533C25.8737 19.1126 26.2283 18.3781 26.4844 17.8273C29.5966 17.8273 32.6991 17.8273 35.8114 17.8273L37.5744 22.0311H42.6171L33.5166 2.19116ZM28.0307 14.3L31.1922 6.81049L34.4522 14.2517L28.0307 14.3Z"
          fill="#F5F5F5"/>
    <path d="M96.5894 2.19116H112.003C112.978 2.44242 113.668 3.30251 113.687 4.27856C113.707 5.2836 113.008 6.18234 112.003 6.44326C108.329 6.44326 104.646 6.44326 100.972 6.44326V9.85461H108.251V14.242H100.923V17.4118C101.455 17.4118 102.302 17.4118 103.356 17.4118C103.494 17.4118 105.444 17.4118 106.507 17.4118C108.142 17.4118 108.408 17.4214 108.694 17.4118C108.783 17.4118 108.832 17.4118 108.891 17.4118C109.492 17.4021 109.895 17.4118 110.841 17.4118C111.274 17.4118 111.255 17.4118 111.274 17.4118C112.171 17.4697 113.687 18.2332 113.756 19.6248C113.815 20.6588 113.037 21.6928 111.865 22.0214C110.811 22.0214 109.758 22.0214 108.704 22.0214C106.783 22.0214 104.853 22.0214 102.932 22.0214C102.125 22.0214 101.317 22.0214 100.509 22.0214C100.076 22.0214 99.6426 22.0311 99.2093 22.0214C99.1403 22.0214 98.9433 22.0214 98.6774 22.0214C98.441 22.0214 98.4509 22.0311 98.3721 22.0311C98.0766 22.0118 97.8501 21.9248 97.7418 21.8765C97.5251 21.7895 97.3576 21.6735 97.2296 21.5672C97.1607 21.4996 97.0819 21.4029 97.0031 21.2966C96.9341 21.2097 96.8849 21.1227 96.8455 21.0357C96.8455 21.0357 96.6879 20.7265 96.6485 20.3496C96.5894 19.8567 96.5697 12.3962 96.5894 2.19116Z"
          fill="#F5F5F5"/>
    <path d="M117.381 2.19114C117.371 8.04744 117.371 13.9134 117.361 19.7697C117.352 20.997 118.356 21.9924 119.548 22.0117C120.681 22.0214 121.675 21.1516 121.784 20.0016C121.793 16.6579 121.793 13.3239 121.803 9.98021L131.889 21.7895H135.69C135.69 15.9621 135.69 10.1252 135.69 4.29786C135.612 3.11887 134.617 2.19114 133.425 2.18147C132.243 2.17181 131.229 3.07055 131.13 4.23021C131.13 7.56425 131.13 10.8886 131.13 14.2227L121.331 2.18147H117.381V2.19114Z"
          fill="#F5F5F5"/>
    <path d="M17.3738 6.53014H11.1394C9.91809 6.53014 8.92334 5.55409 8.92334 4.35577C8.92334 3.15745 9.91809 2.1814 11.1394 2.1814H17.3738C18.5951 2.1814 19.5898 3.15745 19.5898 4.35577C19.58 5.56375 18.5951 6.53014 17.3738 6.53014Z"
          fill="#F5F5F5"/>
    <path d="M17.3738 14.6575H11.1394C9.91809 14.6575 8.92334 13.6814 8.92334 12.4831C8.92334 11.2848 9.91809 10.3087 11.1394 10.3087H17.3738C18.5951 10.3087 19.5898 11.2848 19.5898 12.4831C19.58 13.6814 18.5951 14.6575 17.3738 14.6575Z"
          fill="#F5F5F5"/>
</svg>